<?xml version="1.0" standalone="no"?>
<!DOCTYPE svg PUBLIC "-//W3C//DTD SVG 20010904//EN"
        "http://www.w3.org/TR/2001/REC-SVG-20010904/DTD/svg10.dtd">
<svg version="1.0" xmlns="http://www.w3.org/2000/svg"
     width="512.000000pt" height="512.000000pt" viewBox="0 0 512.000000 512.000000"
     preserveAspectRatio="xMidYMid meet">
    <metadata>
        Coding for Kidz logo for Safari pinned tab
    </metadata>
    <g transform="translate(0.000000,512.000000) scale(0.100000,-0.100000)"
       fill="#000000" stroke="none">
        <path d="M3785 5050 c-188 -5 -178 -6 150 -9 223 -2 328 -7 290 -11 -83 -11
-160 -36 -192 -64 -28 -24 -28 -25 -25 -132 1 -60 7 -113 12 -118 15 -15 12
-44 -5 -48 -13 -3 -13 -6 0 -32 18 -34 22 -326 5 -326 -6 0 -10 -28 -10 -65 0
-37 4 -65 10 -65 6 0 10 -11 10 -25 0 -14 -4 -25 -9 -25 -15 0 -18 -179 -3
-185 15 -5 17 -125 2 -125 -14 0 -13 -307 2 -503 9 -120 9 -160 0 -166 -8 -5
-11 -87 -11 -296 1 -160 0 -311 -1 -337 0 -28 3 -48 9 -48 14 0 14 -37 1 -42
-13 -4 -14 -669 -1 -678 12 -7 12 -90 0 -90 -5 0 -9 -9 -9 -20 0 -11 5 -20 10
-20 6 0 10 -11 10 -25 0 -14 -4 -25 -10 -25 -5 0 -10 -9 -10 -20 0 -11 5 -20
10 -20 6 0 10 -11 10 -25 0 -14 -4 -25 -10 -25 -5 0 -10 -9 -10 -20 0 -11 5
-20 10 -20 13 0 13 -47 0 -52 -14 -4 -14 -352 0 -356 13 -5 13 -42 0 -42 -6 0
-10 -75 -10 -205 0 -130 4 -205 10 -205 6 0 10 -9 10 -20 0 -11 -4 -20 -10
-20 -5 0 -10 -11 -10 -25 0 -14 5 -25 10 -25 6 0 10 -9 10 -20 0 -11 -4 -20
-10 -20 -5 0 -10 -20 -10 -45 0 -25 5 -45 10 -45 6 0 10 -9 10 -19 0 -11 -4
-23 -10 -26 -5 -3 -10 -26 -10 -51 0 -35 4 -44 18 -45 13 0 14 -2 2 -6 -8 -3
-24 -15 -35 -28 -11 -12 -26 -24 -34 -26 -7 -3 27 -6 76 -7 49 -1 166 -6 262
-11 109 -6 184 -6 204 0 18 6 40 12 51 14 36 8 150 66 194 98 80 60 202 197
202 228 0 5 4 18 10 29 6 11 14 28 19 39 11 21 19 65 26 136 10 101 5 3671 -5
3777 -6 58 -19 130 -29 161 -11 30 -16 59 -13 63 4 4 1 4 -5 0 -7 -4 -13 -2
-13 3 0 22 -2 26 -16 43 -14 14 -21 33 -23 61 -1 5 -6 5 -12 2 -6 -4 -13 2
-16 13 -2 11 -16 25 -29 32 -13 8 -24 19 -24 25 0 7 -11 17 -25 23 -14 6 -25
16 -25 22 0 6 -5 8 -10 5 -6 -3 -13 1 -16 9 -3 9 -12 16 -20 16 -7 0 -18 9
-24 21 -7 11 -17 18 -24 16 -8 -3 -27 3 -43 13 -67 41 -308 72 -528 68 -66 -1
-210 -5 -320 -8z m684 -26 c8 -7 -84 -2 -114 7 -19 5 -4 6 40 2 39 -3 72 -7
74 -9z m-432 -1601 c-3 -10 -5 -4 -5 12 0 17 2 24 5 18 2 -7 2 -21 0 -30z m0
-2200 c-3 -10 -5 -4 -5 12 0 17 2 24 5 18 2 -7 2 -21 0 -30z"/>
        <path d="M620 5040 c-41 -5 -100 -15 -131 -23 -52 -14 -178 -71 -189 -86 -3
-4 -21 -18 -40 -31 -19 -14 -44 -34 -55 -45 -24 -24 -85 -103 -85 -110 0 -3
-19 -34 -42 -70 -32 -49 -47 -64 -60 -59 -17 5 -18 -88 -18 -2035 0 -1396 3
-2041 10 -2041 6 0 13 7 16 15 10 25 18 18 48 -37 15 -29 40 -74 55 -99 29
-47 132 -155 169 -176 56 -33 161 -83 174 -83 8 0 19 -5 26 -12 9 -9 12 -9 12
2 0 13 2 13 9 1 8 -12 49 -14 242 -12 129 1 236 4 240 7 3 2 30 4 58 5 32 1
47 5 39 10 -7 5 -19 9 -27 9 -18 0 -62 48 -50 55 12 8 12 42 -1 47 -14 4 -14
298 0 312 13 13 13 86 0 86 -6 0 -10 30 -10 70 0 40 4 70 10 70 6 0 10 9 10
20 0 11 -4 20 -10 20 -6 0 -10 45 -10 114 0 78 -4 116 -12 118 -15 5 -15 391
1 396 7 2 11 71 11 208 0 129 4 204 10 204 6 0 10 35 10 84 0 47 -4 88 -10 91
-6 4 -10 98 -10 251 0 156 4 244 10 244 6 0 10 9 10 19 0 11 -4 23 -10 26 -5
3 -10 24 -10 45 0 21 -4 42 -10 45 -13 8 -13 45 0 45 6 0 10 43 10 109 0 63 4
112 10 116 13 8 13 45 0 45 -6 0 -10 58 -10 153 0 104 -4 157 -12 165 -8 8
-11 150 -11 547 1 294 4 553 8 575 4 26 3 40 -4 40 -16 0 -13 40 4 74 12 22
15 66 15 191 0 180 -5 225 -27 225 -8 0 -12 4 -9 9 3 5 14 7 24 4 10 -2 34 0
53 6 l34 10 -45 0 c-40 0 -280 18 -305 22 -5 1 15 5 45 9 l55 7 -70 0 c-38 0
-104 -3 -145 -7z m377 -4222 c-3 -7 -5 -2 -5 12 0 14 2 19 5 13 2 -7 2 -19 0
-25z m3 -78 c0 -11 -4 -20 -10 -20 -5 0 -10 9 -10 20 0 11 5 20 10 20 6 0 10
-9 10 -20z m-3 -132 c-2 -13 -4 -3 -4 22 0 25 2 35 4 23 2 -13 2 -33 0 -45z"/>
        <path d="M848 5043 c6 -2 18 -2 25 0 6 3 1 5 -13 5 -14 0 -19 -2 -12 -5z"/>
        <path d="M2188 5043 c57 -2 147 -2 200 0 53 1 7 3 -103 3 -110 0 -154 -2 -97
-3z"/>
        <path d="M2858 5043 c39 -2 105 -2 145 0 39 1 7 3 -73 3 -80 0 -112 -2 -72 -3z"/>
        <path d="M2676 3979 c-278 -30 -400 -65 -620 -176 -349 -175 -636 -516 -763
-903 -39 -120 -62 -221 -74 -315 -5 -44 -12 -98 -15 -119 -12 -73 34 -341 81
-471 63 -175 130 -282 254 -405 125 -125 249 -209 411 -278 293 -127 709 -147
1020 -50 87 27 195 65 217 77 10 5 52 26 93 46 132 66 200 128 200 182 0 28
-46 112 -82 149 -45 48 -123 87 -161 81 -18 -2 -77 -20 -132 -39 -68 -24 -144
-41 -239 -53 -131 -18 -145 -18 -257 -2 -269 37 -457 148 -544 323 -26 53 -30
71 -33 176 -5 140 12 226 68 345 87 186 207 312 369 386 58 26 77 30 156 30
104 0 157 -18 222 -77 22 -20 46 -36 54 -36 7 0 27 13 44 28 16 16 75 57 130
92 224 141 281 179 405 269 71 51 159 124 195 162 66 70 125 160 125 191 0 40
-206 177 -391 260 -213 95 -529 150 -733 127z"/>
        <path d="M953 123 c175 -2 459 -2 630 0 172 1 29 2 -318 2 -346 0 -487 -1
-312 -2z"/>
        <path d="M3098 123 c237 -2 627 -2 865 0 237 1 43 2 -433 2 -476 0 -670 -1
-432 -2z"/>
    </g>
</svg>
